<svg xmlns="http://www.w3.org/2000/svg" version="1.1" xmlns:xlink="http://www.w3.org/1999/xlink" xmlns:svgjs="http://svgjs.com/svgjs" width="1440" height="560" preserveAspectRatio="none" viewBox="0 0 1440 560"><g mask="url(&quot;#SvgjsMask1022&quot;)" fill="none"><rect width="1440" height="560" x="0" y="0" fill="rgba(119, 101, 227, 1)"></rect><path d="M1066.719,458.963C1116.382,459.835,1154.628,422.06,1181.226,380.11C1210.475,333.979,1238.548,277.863,1211.708,230.29C1184.599,182.241,1121.818,174.37,1066.719,177.155C1017.233,179.657,968.663,200.193,945.076,243.768C922.429,285.607,935.562,334.79,958.973,376.206C982.858,418.46,1018.188,458.111,1066.719,458.963" fill="rgba(28, 83, 142, 0.4)" class="triangle-float2"></path><path d="M673.8472287698603 81.98308888616697L773.4236058798921 17.452270015583622 681.8393294792442-31.243953538532693z" fill="rgba(28, 83, 142, 0.4)" class="triangle-float3"></path><path d="M1196.7374466928452 580.142269392542L1186.2032406500389 459.73574335520186 1065.7967146126987 470.2699493980082 1076.330920655505 590.6764754353483z" fill="rgba(28, 83, 142, 0.4)" class="triangle-float2"></path><path d="M187.5021576210168 415.124262954558L86.63990606213245 473.35711104315163 144.8727541507261 574.219362602036 245.73500570961045 515.9865145134423z" fill="rgba(28, 83, 142, 0.4)" class="triangle-float3"></path><path d="M102.982,536.598C143.029,537.113,185.566,528.518,206.938,494.647C229.526,458.848,226.529,412.151,204.191,376.195C183.001,342.086,143.049,324.657,102.982,327.31C67.029,329.69,41.217,357.37,22.597,388.218C3.111,420.501,-14.408,458.877,3.554,492.032C22.096,526.259,64.058,536.098,102.982,536.598" fill="rgba(28, 83, 142, 0.4)" class="triangle-float2"></path><path d="M663.059,184.599C694.299,182.785,718.939,160.094,733.325,132.304C746.493,106.867,745.298,77.317,731.623,52.15C717.232,25.666,693.153,4.664,663.059,2.989C630.019,1.15,597.326,15.593,579.862,43.701C561.438,73.354,559.326,111.316,577.076,141.377C594.558,170.983,628.735,186.592,663.059,184.599" fill="rgba(28, 83, 142, 0.4)" class="triangle-float3"></path><path d="M1098.2421576387965 212.60347519892244L1193.3093137291523 166.23612507137832 1051.8748075112524 117.53631910856656z" fill="rgba(28, 83, 142, 0.4)" class="triangle-float3"></path><path d="M1326.268464801935 295.2059208986882L1249.354067140769 336.10203156569156 1290.2501778077726 413.0164292268573 1367.1645754689382 372.1203185598539z" fill="rgba(28, 83, 142, 0.4)" class="triangle-float1"></path><path d="M1108.423347802735 26.239818267445926L1149.6139112497729 97.58396695010481 1236.0348525502422 0.1260474382186132z" fill="rgba(28, 83, 142, 0.4)" class="triangle-float3"></path><path d="M586.2013664152339 253.51971327086594L527.969427013544 378.0884252882711 647.8798321690709 369.7034729368904z" fill="rgba(28, 83, 142, 0.4)" class="triangle-float1"></path><path d="M890.3908755725082 200.48970536292893L811.3911427281668 337.3212564336961 948.222693798934 416.3209892780375 1027.2224266432754 279.4894382072703z" fill="rgba(28, 83, 142, 0.4)" class="triangle-float3"></path><path d="M1194.2534395067134 136.09068666785544L1296.6378404038915 100.83691026883785 1261.3840640048738-1.5474906283402277 1158.9996631076958 33.706285770677354z" fill="rgba(28, 83, 142, 0.4)" class="triangle-float2"></path><path d="M351.992,378.285C379.065,377.839,400.38,356.498,412.061,332.07C422.213,310.84,417.537,286.715,405.426,266.539C393.727,247.05,374.621,234.148,351.992,232.002C324.343,229.38,292.237,230.838,277.554,254.412C262.363,278.802,273.595,309.478,288.395,334.107C302.645,357.82,324.331,378.741,351.992,378.285" fill="rgba(28, 83, 142, 0.4)" class="triangle-float1"></path><path d="M1337.6490238202507 63.29303073537478L1375.5331537583786 180.26759612906986 1448.8364929062423 101.65938888657334z" fill="rgba(28, 83, 142, 0.4)" class="triangle-float1"></path></g><defs><mask id="SvgjsMask1022"><rect width="1440" height="560" fill="#ffffff"></rect></mask><style>
            @keyframes float1 {
                0%{transform: translate(0, 0)}
                50%{transform: translate(-10px, 0)}
                100%{transform: translate(0, 0)}
            }

            .triangle-float1 {
                animation: float1 5s infinite;
            }

            @keyframes float2 {
                0%{transform: translate(0, 0)}
                50%{transform: translate(-5px, -5px)}
                100%{transform: translate(0, 0)}
            }

            .triangle-float2 {
                animation: float2 4s infinite;
            }

            @keyframes float3 {
                0%{transform: translate(0, 0)}
                50%{transform: translate(0, -10px)}
                100%{transform: translate(0, 0)}
            }

            .triangle-float3 {
                animation: float3 6s infinite;
            }
        </style></defs></svg>