<svg xmlns="http://www.w3.org/2000/svg" version="1.1" xmlns:xlink="http://www.w3.org/1999/xlink" xmlns:svgjs="http://svgjs.com/svgjs" width="1440" height="560" preserveAspectRatio="none" viewBox="0 0 1440 560"><g mask="url(&quot;#SvgjsMask1001&quot;)" fill="none"><rect width="1440" height="560" x="0" y="0" fill="rgba(119, 101, 227, 1)"></rect><path d="M1536 560L0 560 L0 335.49Q12.11 275.6, 72 287.71Q116 259.7, 144 303.7Q208.3 296, 216 360.29Q236.31 308.61, 288 328.92Q305.46 274.38, 360 291.85Q404.02 263.88, 432 307.9Q487.33 291.23, 504 346.56Q514.06 284.63, 576 294.69Q605.63 252.32, 648 281.96Q722.12 236.07, 768 310.19Q852.99 275.18, 888 360.17Q932.81 332.98, 960 377.78Q971.54 317.32, 1032 328.86Q1057.75 282.61, 1104 308.35Q1160.53 292.88, 1176 349.42Q1225.95 279.37, 1296 329.32Q1331.71 245.03, 1416 280.74Q1506.82 251.56, 1536 342.38z" fill="#182f5d"></path><path d="M1488 560L0 560 L0 409.46Q61.03 350.49, 120 411.52Q125.42 344.94, 192 350.35Q261.97 300.32, 312 370.29Q403.93 342.22, 432 434.14Q453.56 383.69, 504 405.25Q546.06 327.31, 624 369.37Q653.13 326.5, 696 355.64Q747.93 335.57, 768 387.51Q843.81 343.31, 888 419.12Q913.48 372.6, 960 398.07Q1038.05 356.12, 1080 434.17Q1103.53 385.7, 1152 409.22Q1200.75 337.98, 1272 386.73Q1294.59 337.31, 1344 359.9Q1406.69 350.59, 1416 413.28Q1431.86 357.14, 1488 373z" fill="#25467d"></path><path d="M1488 560L0 560 L0 429.13Q70.93 428.06, 72 499Q140.33 447.33, 192 515.66Q216 419.66, 312 443.67Q383.1 394.77, 432 465.88Q508.4 422.28, 552 498.68Q581.56 408.25, 672 437.81Q738.36 384.17, 792 450.53Q835.61 422.13, 864 465.74Q944.68 426.42, 984 507.1Q1013.81 416.92, 1104 446.73Q1154.13 376.86, 1224 426.99Q1287.79 418.78, 1296 482.57Q1345.87 460.44, 1368 510.31Q1409.12 431.43, 1488 472.55z" fill="#356cb1"></path><path d="M1536 560L0 560 L0 550.54Q31.63 462.16, 120 493.79Q167.83 469.62, 192 517.45Q253.61 507.06, 264 568.67Q285.49 518.15, 336 539.64Q378.66 510.3, 408 552.95Q474.04 498.99, 528 565.03Q560.15 477.18, 648 509.34Q715.72 457.06, 768 524.79Q824.37 509.16, 840 565.53Q869.52 523.05, 912 552.57Q930.19 498.76, 984 516.95Q1009.13 470.08, 1056 495.2Q1114.47 481.67, 1128 540.15Q1177.29 517.44, 1200 566.73Q1201.29 496.02, 1272 497.32Q1345.12 498.43, 1344 571.55Q1386.87 542.42, 1416 585.29Q1460.72 510, 1536 554.72z" fill="white"></path></g><defs><mask id="SvgjsMask1001"><rect width="1440" height="560" fill="#ffffff"></rect></mask></defs></svg>