<svg xmlns="http://www.w3.org/2000/svg" version="1.1" xmlns:xlink="http://www.w3.org/1999/xlink" xmlns:svgjs="http://svgjs.com/svgjs" width="1440" height="560" preserveAspectRatio="none" viewBox="0 0 1440 560"><g mask="url(&quot;#SvgjsMask1049&quot;)" fill="none"><rect width="1440" height="560" x="0" y="0" fill="rgba(119, 101, 227, 1)"></rect><path d="M0,429.318C79.286,425.95,141.448,366.872,207.726,323.228C273.234,280.091,341.274,240.944,384.977,175.813C433.846,102.983,481.436,19.382,469.948,-67.568C458.431,-154.738,383.928,-216.372,324.589,-281.258C266.774,-344.477,209.323,-409.718,129.234,-440.131C45.471,-471.939,-45.803,-472.75,-133.682,-455.28C-227.575,-436.615,-331.87,-413.889,-389.035,-337.101C-445.577,-261.149,-411.882,-154.869,-426.918,-61.382C-442.291,34.2,-522.733,132.416,-478.389,218.473C-433.713,305.175,-308.637,302.033,-219.385,341.37C-145.801,373.801,-80.342,432.731,0,429.318" fill="#462ed9"></path><path d="M1440 1021.802C1524.781 1014.617 1573.597 924.9639999999999 1642.228 874.673 1705.688 828.171 1789.894 805.999 1828.245 737.306 1867.628 666.764 1871.114 579.142 1850.892 500.923 1831.6970000000001 426.676 1760.7440000000001 382.409 1719.741 317.603 1669.172 237.678 1663.815 123.69 1582.091 76.084 1498.096 27.154999999999973 1381.001 23.101 1296.42 71.00999999999999 1213.175 118.16300000000001 1212.524 237.11200000000002 1158.459 316.043 1112.711 382.832 1025.935 419.33500000000004 1004.3820000000001 497.368 981.95 578.587 1002.5509999999999 667.226 1040.714 742.348 1078.019 815.783 1146.993 863.697 1214.474 910.9259999999999 1284.523 959.952 1354.804 1029.022 1440 1021.802" fill="#a89ded"></path></g><defs><mask id="SvgjsMask1049"><rect width="1440" height="560" fill="#ffffff"></rect></mask></defs></svg>