<?xml version="1.0" standalone="no"?><svg xmlns="http://www.w3.org/2000/svg" viewBox="0 0 1440 320"><path fill="#7765e3" fill-opacity="1" d="M0,192L26.7,176C53.3,160,107,128,160,101.3C213.3,75,267,53,320,42.7C373.3,32,427,32,480,64C533.3,96,587,160,640,186.7C693.3,213,747,203,800,186.7C853.3,171,907,149,960,165.3C1013.3,181,1067,235,1120,261.3C1173.3,288,1227,288,1280,261.3C1333.3,235,1387,181,1413,154.7L1440,128L1440,320L1413.3,320C1386.7,320,1333,320,1280,320C1226.7,320,1173,320,1120,320C1066.7,320,1013,320,960,320C906.7,320,853,320,800,320C746.7,320,693,320,640,320C586.7,320,533,320,480,320C426.7,320,373,320,320,320C266.7,320,213,320,160,320C106.7,320,53,320,27,320L0,320Z"></path></svg>