<?xml version="1.0" standalone="no"?><svg xmlns="http://www.w3.org/2000/svg" viewBox="0 0 1440 320"><path fill="#7765e3" fill-opacity="1" d="M0,32L26.7,69.3C53.3,107,107,181,160,186.7C213.3,192,267,128,320,96C373.3,64,427,64,480,85.3C533.3,107,587,149,640,165.3C693.3,181,747,171,800,144C853.3,117,907,75,960,69.3C1013.3,64,1067,96,1120,96C1173.3,96,1227,64,1280,58.7C1333.3,53,1387,75,1413,85.3L1440,96L1440,320L1413.3,320C1386.7,320,1333,320,1280,320C1226.7,320,1173,320,1120,320C1066.7,320,1013,320,960,320C906.7,320,853,320,800,320C746.7,320,693,320,640,320C586.7,320,533,320,480,320C426.7,320,373,320,320,320C266.7,320,213,320,160,320C106.7,320,53,320,27,320L0,320Z"></path></svg>